<svg data-v-423bf9ae="" xmlns="http://www.w3.org/2000/svg" viewBox="0 0 440 90" class="iconLeftSlogan"><!----><!----><!----><g data-v-423bf9ae="" id="ecb23738-469d-4e10-994b-d23cda611733" fill="#2F2849" transform="matrix(5.1948051090190095,0,0,5.1948051090190095,141.73389485045936,-17.038960847376366)"><path d="M3.23 9.52L4.54 9.55L4.54 9.55Q5.22 6.45 5.22 4.90L5.22 4.90L5.22 4.54L5.22 4.54Q5.22 4.30 5.34 4.18L5.34 4.18L5.34 4.18Q5.46 4.06 5.59 4.04L5.59 4.04L5.59 4.04Q5.73 4.02 6.13 4.02L6.13 4.02L6.13 4.02Q6.52 4.02 6.96 4.31L6.96 4.31L6.96 4.31Q7.41 4.61 7.41 5.11L7.41 5.11L7.41 5.11Q7.41 5.21 7.28 6.33L7.28 6.33L7.28 6.33Q7.15 7.45 7.11 9.20L7.11 9.20L7.11 9.20Q7.59 9.00 7.88 8.79L7.88 8.79L7.88 8.79Q8.16 8.57 8.26 8.57L8.26 8.57L8.26 8.57Q8.41 8.57 8.41 8.86L8.41 8.86L8.41 8.86Q8.41 9.14 7.98 9.58L7.98 9.58L7.98 9.58Q7.55 10.02 7.11 10.30L7.11 10.30L7.11 10.30Q7.11 10.61 7.14 11.28L7.14 11.28L7.14 11.28Q7.18 11.26 7.26 11.26L7.26 11.26L7.26 11.26Q7.34 11.26 7.41 11.30L7.41 11.30L7.41 11.30Q7.49 11.34 7.55 11.40L7.55 11.40L7.55 11.40Q7.62 11.45 7.70 11.56L7.70 11.56L7.70 11.56Q7.78 11.66 7.83 11.72L7.83 11.72L7.83 11.72Q7.87 11.77 7.94 11.88L7.94 11.88L7.94 11.88Q8.01 11.98 8.02 12.00L8.02 12.00L8.02 12.00Q8.27 12.38 8.27 12.59L8.27 12.59L8.27 12.59Q8.27 12.81 8.19 13.09L8.19 13.09L8.19 13.09Q7.87 13.92 7.76 14.53L7.76 14.53L7.76 14.53Q7.70 14.83 7.42 14.83L7.42 14.83L7.42 14.83Q7.11 14.83 6.99 14.66L6.99 14.66L6.99 14.66Q6.87 14.50 6.81 14.41L6.81 14.41L6.81 14.41Q6.75 14.31 6.70 14.13L6.70 14.13L6.70 14.13Q6.65 13.94 6.62 13.84L6.62 13.84L6.62 13.84Q6.59 13.73 6.57 13.51L6.57 13.51L6.57 13.51Q6.52 13.22 6.51 12.92L6.51 12.92L6.50 12.70L6.50 12.70Q6.44 12.03 6.36 10.65L6.36 10.65L6.36 10.65Q5.99 10.78 5.24 10.81L5.24 10.81L5.24 10.81Q5.01 11.82 4.78 12.66L4.78 12.66L4.78 12.66Q4.55 13.51 4.03 14.01L4.03 14.01L4.03 14.01Q3.50 14.52 2.74 14.52L2.74 14.52L2.74 14.52Q2.52 14.52 2.21 14.45L2.21 14.45L2.21 14.45Q0.41 13.96-0.25 12.17L-0.25 12.17L-0.25 12.17Q-0.42 11.70-0.42 11.35L-0.42 11.35L-0.42 11.35Q-0.42 10.51 0.28 10.21L0.28 10.21L0.28 10.21Q1.79 9.52 3.23 9.52L3.23 9.52ZM6.30 9.41L6.30 9.41L6.30 9.41Q6.24 8.18 6.19 5.66L6.19 5.66L6.19 5.66Q6.08 6.30 5.84 7.59L5.84 7.59L5.84 7.59Q5.61 8.88 5.50 9.52L5.50 9.52L5.50 9.52Q6.03 9.46 6.30 9.41ZM4.21 10.82L4.21 10.82L3.32 10.82L3.32 10.82Q1.61 10.82 0.59 11.06L0.59 11.06L0.59 11.06Q0.01 11.17 0.01 11.48L0.01 11.48L0.01 11.48Q0.01 11.72 0.39 12.10L0.39 12.10L0.39 12.10Q0.77 12.47 1.37 12.68L1.37 12.68L1.37 12.68Q1.97 12.88 2.38 12.88L2.38 12.88L2.38 12.88Q2.79 12.88 3.06 12.74L3.06 12.74L3.06 12.74Q3.33 12.60 3.49 12.45L3.49 12.45L3.49 12.45Q3.65 12.29 3.81 11.94L3.81 11.94L3.81 11.94Q4.00 11.51 4.21 10.82ZM9.70 3.86L9.70 3.86L9.63 3.44L9.63 3.44Q9.63 3.28 9.81 3.28L9.81 3.28L9.81 3.28Q9.88 3.28 10.00 3.30L10.00 3.30L10.00 3.30Q10.84 3.47 10.84 4.27L10.84 4.27L10.84 4.27Q10.84 4.47 10.79 4.70L10.79 4.70L10.79 4.70Q10.75 4.93 10.63 5.66L10.63 5.66L10.63 5.66Q10.51 6.38 10.46 6.71L10.46 6.71L10.32 7.67L10.32 7.67Q9.98 9.88 9.98 11.75L9.98 11.75L9.98 11.75Q9.98 12.15 10.18 12.15L10.18 12.15L10.18 12.15Q10.25 12.15 10.33 12.07L10.33 12.07L10.33 12.07Q11.31 10.84 11.47 10.56L11.47 10.56L11.47 10.56Q11.63 10.29 11.71 10.29L11.71 10.29L11.71 10.29Q11.79 10.29 11.79 10.48L11.79 10.48L11.79 10.48Q11.79 10.67 11.71 11.19L11.71 11.19L11.71 11.19Q11.63 11.72 11.62 11.87L11.62 11.87L11.62 11.87Q11.61 12.01 11.56 12.19L11.56 12.19L11.56 12.19Q11.51 12.38 11.47 12.48L11.47 12.48L11.47 12.48Q11.44 12.59 11.33 12.78L11.33 12.78L11.33 12.78Q11.21 12.96 11.17 13.02L11.17 13.02L11.17 13.02Q10.88 13.41 10.70 13.63L10.70 13.63L10.70 13.63Q10.53 13.85 10.30 13.85L10.30 13.85L10.30 13.85Q10.07 13.85 9.86 13.64L9.86 13.64L9.86 13.64Q9.65 13.43 9.55 13.26L9.55 13.26L9.55 13.26Q9.46 13.09 9.30 12.74L9.30 12.74L9.30 12.74Q8.81 11.79 8.81 10.74L8.81 10.74L8.81 10.74Q8.81 9.84 9.01 8.54L9.01 8.54L9.01 8.54Q9.21 7.24 9.25 6.92L9.25 6.92L9.25 6.92Q8.93 6.92 8.93 6.64L8.93 6.64L8.93 6.64Q8.93 6.52 8.97 6.42L8.97 6.42L8.97 6.42Q9.00 6.31 9.23 5.64L9.23 5.64L9.23 5.64Q9.70 4.28 9.70 3.86ZM16.23 11.89L16.23 11.89L16.23 11.89Q16.23 14.01 14.07 14.01L14.07 14.01L14.07 14.01Q13.17 14.01 12.76 13.55L12.76 13.55L12.76 13.55Q12.35 13.09 12.04 12.14L12.04 12.14L12.04 12.14Q11.93 11.77 11.93 11.36L11.93 11.36L11.93 11.36Q11.93 10.95 12.30 10.25L12.30 10.25L12.30 10.25Q12.67 9.56 13.12 9.04L13.12 9.04L13.12 9.04Q13.17 8.27 13.47 8.27L13.47 8.27L13.47 8.27Q13.62 8.27 13.68 8.46L13.68 8.46L13.68 8.46Q13.97 8.19 14.39 7.94L14.39 7.94L14.39 7.94Q14.81 7.69 15.15 7.69L15.15 7.69L15.15 7.69Q15.48 7.69 15.84 8.08L15.84 8.08L15.84 8.08Q16.20 8.47 16.20 8.88L16.20 8.88L16.20 8.88Q16.20 9.30 15.62 10.01L15.62 10.01L15.62 10.01Q14.55 11.35 13.93 11.35L13.93 11.35L13.93 11.35Q13.48 11.35 13.23 10.61L13.23 10.61L13.23 10.61Q13.22 10.64 13.10 10.84L13.10 10.84L13.10 10.84Q12.98 11.05 12.93 11.14L12.93 11.14L12.93 11.14Q12.88 11.24 12.80 11.41L12.80 11.41L12.80 11.41Q12.66 11.73 12.66 11.98L12.66 11.98L12.66 11.98Q12.66 12.56 13.23 12.56L13.23 12.56L13.23 12.56Q14.18 12.56 14.85 12.16L14.85 12.16L14.85 12.16Q15.51 11.76 16.17 10.95L16.17 10.95L16.17 10.95Q16.23 11.56 16.23 11.89ZM13.94 10.19L13.94 10.19Q14.17 10.19 14.61 9.65L14.61 9.65L14.61 9.65Q15.05 9.10 15.05 8.90L15.05 8.90L15.05 8.90Q15.05 8.69 14.90 8.69L14.90 8.69L14.90 8.69Q14.76 8.69 14.40 9.06L14.40 9.06L14.40 9.06Q14.04 9.42 13.83 9.69L13.83 9.69L13.83 9.69Q13.80 9.86 13.80 9.94L13.80 9.94L13.80 9.94Q13.80 10.19 13.94 10.19L13.94 10.19ZM21.34 7.42L21.34 7.42L21.34 7.53L21.34 7.53Q21.32 7.73 21.17 8.04L21.17 8.04L21.17 8.04Q20.40 9.41 19.28 11.02L19.28 11.02L19.28 11.02Q20.10 13.02 20.10 13.38L20.10 13.38L20.10 13.38Q20.10 13.54 20.02 13.66L20.02 13.66L20.02 13.66Q19.94 13.78 19.80 13.78L19.80 13.78L19.80 13.78Q19.67 13.78 19.57 13.68L19.57 13.68L19.57 13.68Q19.05 13.17 18.47 12.18L18.47 12.18L18.47 12.18Q18.44 12.22 18.31 12.39L18.31 12.39L18.31 12.39Q18.19 12.56 18.16 12.61L18.16 12.61L18.16 12.61Q18.13 12.67 18.06 12.81L18.06 12.81L18.06 12.81Q17.96 12.98 17.93 13.34L17.93 13.34L17.93 13.34Q17.89 13.69 17.74 13.69L17.74 13.69L17.74 13.69Q17.58 13.69 17.19 13.29L17.19 13.29L17.19 13.29Q16.79 12.89 16.79 12.47L16.79 12.47L16.79 12.47Q16.79 11.84 17.67 10.60L17.67 10.60L17.67 10.60Q16.79 8.44 16.79 8.27L16.79 8.27L16.79 8.27Q16.79 8.09 16.91 7.84L16.91 7.84L16.91 7.84Q17.04 7.59 17.19 7.59L17.19 7.59L17.19 7.59Q17.35 7.59 17.85 8.36L17.85 8.36L17.85 8.36Q18.35 9.13 18.55 9.52L18.55 9.52L18.55 9.52Q18.94 9.10 19.98 8.11L19.98 8.11L19.98 8.11Q21.03 7.13 21.20 7.13L21.20 7.13L21.20 7.13Q21.34 7.13 21.34 7.42ZM33.54 9.23L33.54 9.23L33.54 9.23Q33.61 9.23 33.61 9.38L33.61 9.38L33.61 9.38Q33.61 9.53 33.60 9.69L33.60 9.69L33.60 9.69Q33.38 12.35 32.27 13.58L32.27 13.58L32.27 13.58Q31.91 13.99 31.08 14.01L31.08 14.01L31.08 14.01Q30.07 13.65 30.07 12.24L30.07 12.24L30.07 12.24Q30.07 11.98 30.13 11.60L30.13 11.60L30.13 11.60Q30.18 11.21 31.07 6.17L31.07 6.17L31.07 6.17Q29.83 8.67 29.48 12.25L29.48 12.25L29.48 12.25Q29.44 12.67 29.41 12.88L29.41 12.88L29.41 12.88Q29.36 13.33 29.04 13.33L29.04 13.33L29.04 13.33Q28.60 13.33 28.11 12.67L28.11 12.67L28.11 12.67Q27.94 12.45 27.94 12.11L27.94 12.11L27.94 12.11Q27.94 11.77 27.96 11.37L27.96 11.37L27.96 11.37Q27.99 10.96 28.04 10.47L28.04 10.47L28.04 10.47Q28.10 9.98 28.13 9.69L28.13 9.69L28.13 9.69Q28.15 9.39 28.26 8.79L28.26 8.79L28.26 8.79Q28.36 8.19 28.39 8.02L28.39 8.02L28.39 8.02Q28.42 7.84 28.55 7.13L28.55 7.13L28.55 7.13Q28.69 6.41 28.70 6.33L28.70 6.33L28.70 6.33Q28.49 6.54 28.33 6.96L28.33 6.96L28.33 6.96Q28.17 7.38 28.07 7.64L28.07 7.64L28.07 7.64Q27.97 7.90 27.87 8.26L27.87 8.26L27.87 8.26Q27.78 8.62 27.71 8.89L27.71 8.89L27.71 8.89Q27.64 9.16 27.54 9.53L27.54 9.53L27.54 9.53Q27.45 9.91 27.41 10.11L27.41 10.11L27.41 10.11Q27.31 10.47 27.09 11.47L27.09 11.47L27.09 11.47Q26.87 12.46 26.80 12.72L26.80 12.72L26.80 12.72Q26.74 12.98 26.70 13.14L26.70 13.14L26.70 13.14Q26.67 13.30 26.65 13.36L26.65 13.36L26.65 13.36Q26.63 13.43 26.57 13.54L26.57 13.54L26.57 13.54Q26.46 13.73 26.21 13.73L26.21 13.73L26.21 13.73Q25.97 13.73 25.79 13.56L25.79 13.56L25.79 13.56Q25.62 13.38 25.56 13.25L25.56 13.25L25.56 13.25Q25.51 13.12 25.42 12.87L25.42 12.87L25.42 12.87Q25.33 12.63 25.33 12.49L25.33 12.49L25.33 12.49Q25.33 12.35 25.41 12.00L25.41 12.00L25.41 12.00Q25.49 11.65 25.61 11.13L25.61 11.13L25.61 11.13Q25.73 10.61 25.77 10.46L25.77 10.46L25.77 10.46Q25.80 10.32 25.91 9.84L25.91 9.84L25.91 9.84Q26.01 9.37 26.05 9.17L26.05 9.17L26.05 9.17Q26.10 8.97 26.18 8.55L26.18 8.55L26.18 8.55Q26.26 8.12 26.31 7.88L26.31 7.88L26.31 7.88Q26.35 7.63 26.42 7.25L26.42 7.25L26.42 7.25Q26.49 6.86 26.53 6.57L26.53 6.57L26.53 6.57Q26.67 5.64 26.70 5.28L26.70 5.28L26.70 5.18L26.70 5.18Q26.70 4.93 26.59 4.93L26.59 4.93L26.59 4.93Q26.47 4.93 26.22 5.32L26.22 5.32L26.22 5.32Q25.97 5.71 25.87 5.92L25.87 5.92L25.87 5.92Q25.77 6.13 25.73 6.50L25.73 6.50L25.73 6.50Q25.54 8.44 24.72 9.66L24.72 9.66L24.72 9.66Q24.63 9.80 24.42 9.80L24.42 9.80L24.42 9.80Q24.21 9.80 23.97 9.58L23.97 9.58L23.97 9.58Q23.74 9.35 23.74 9.11L23.74 9.11L23.74 9.11Q23.74 7.69 24.71 5.81L24.71 5.81L24.71 5.81Q25.09 5.10 25.33 3.70L25.33 3.70L25.33 3.70Q25.70 4.26 25.79 4.44L25.79 4.44L25.79 4.44Q25.89 4.62 26.00 4.62L26.00 4.62L26.00 4.62Q26.05 4.62 26.25 4.45L26.25 4.45L26.25 4.45Q26.45 4.28 26.83 4.28L26.83 4.28L26.83 4.28Q27.22 4.28 27.45 4.48L27.45 4.48L27.45 4.48Q27.69 4.68 27.75 4.93L27.75 4.93L27.75 4.93Q27.82 5.18 27.85 5.68L27.85 5.68L27.85 5.68Q27.93 5.61 28.14 5.42L28.14 5.42L28.14 5.42Q28.59 5.03 28.93 5.03L28.93 5.03L28.93 5.03Q29.27 5.03 29.55 5.40L29.55 5.40L29.55 5.40Q29.82 5.77 29.79 6.16L29.79 6.16L29.79 6.16Q29.96 5.96 30.41 5.19L30.41 5.19L30.41 5.19Q30.73 4.69 31.26 4.69L31.26 4.69L31.26 4.69Q32.14 4.69 32.14 5.49L32.14 5.49L32.14 5.49Q32.14 5.85 31.81 7.50L31.81 7.50L31.81 7.50Q31.47 9.16 31.32 10.23L31.32 10.23L31.32 10.23Q31.16 11.30 31.16 12.25L31.16 12.25L31.16 12.52L31.16 12.52Q31.63 12.12 32.07 11.53L32.07 11.53L32.07 11.53Q32.51 10.93 32.72 10.58L32.72 10.58L32.72 10.58Q32.93 10.22 33.38 9.42L33.38 9.42L33.38 9.42Q33.50 9.23 33.54 9.23ZM38.05 11.89L38.05 11.89L38.05 11.89Q38.05 14.01 35.90 14.01L35.90 14.01L35.90 14.01Q35 14.01 34.59 13.55L34.59 13.55L34.59 13.55Q34.17 13.09 33.87 12.14L33.87 12.14L33.87 12.14Q33.75 11.77 33.75 11.36L33.75 11.36L33.75 11.36Q33.75 10.95 34.13 10.25L34.13 10.25L34.13 10.25Q34.50 9.56 34.94 9.04L34.94 9.04L34.94 9.04Q35 8.27 35.29 8.27L35.29 8.27L35.29 8.27Q35.45 8.27 35.50 8.46L35.50 8.46L35.50 8.46Q35.80 8.19 36.22 7.94L36.22 7.94L36.22 7.94Q36.64 7.69 36.97 7.69L36.97 7.69L36.97 7.69Q37.31 7.69 37.67 8.08L37.67 8.08L37.67 8.08Q38.02 8.47 38.02 8.88L38.02 8.88L38.02 8.88Q38.02 9.30 37.45 10.01L37.45 10.01L37.45 10.01Q36.37 11.35 35.76 11.35L35.76 11.35L35.76 11.35Q35.31 11.35 35.06 10.61L35.06 10.61L35.06 10.61Q35.04 10.64 34.92 10.84L34.92 10.84L34.92 10.84Q34.80 11.05 34.75 11.14L34.75 11.14L34.75 11.14Q34.71 11.24 34.62 11.41L34.62 11.41L34.62 11.41Q34.48 11.73 34.48 11.98L34.48 11.98L34.48 11.98Q34.48 12.56 35.06 12.56L35.06 12.56L35.06 12.56Q36.01 12.56 36.67 12.16L36.67 12.16L36.67 12.16Q37.34 11.76 38.00 10.95L38.00 10.95L38.00 10.95Q38.05 11.56 38.05 11.89ZM35.77 10.19L35.77 10.19Q35.99 10.19 36.43 9.65L36.43 9.65L36.43 9.65Q36.88 9.10 36.88 8.90L36.88 8.90L36.88 8.90Q36.88 8.69 36.73 8.69L36.73 8.69L36.73 8.69Q36.58 8.69 36.22 9.06L36.22 9.06L36.22 9.06Q35.87 9.42 35.66 9.69L35.66 9.69L35.66 9.69Q35.63 9.86 35.63 9.94L35.63 9.94L35.63 9.94Q35.63 10.19 35.77 10.19L35.77 10.19ZM43.25 10.63L43.25 10.63L43.25 10.63Q43.25 11.31 43.18 11.82L43.18 11.82L43.18 11.82Q43.11 12.32 42.67 13.17L42.67 13.17L42.67 13.17Q42.24 14.01 41.82 14.01L41.82 14.01L41.82 14.01Q41.64 14.01 41.47 13.82L41.47 13.82L41.47 13.82Q40.64 12.82 40.64 11.93L40.64 11.93L40.64 11.93Q40.64 11.66 40.82 10.71L40.82 10.71L40.82 10.71Q41.08 9.28 41.08 9.12L41.08 9.12L41.08 9.12Q41.08 8.96 41.03 8.96L41.03 8.96L41.03 8.96Q40.98 8.96 40.92 9.07L40.92 9.07L40.92 9.07Q40.56 9.72 40.33 10.54L40.33 10.54L40.33 10.54Q40.11 11.35 40.04 11.91L40.04 11.91L40.04 11.91Q39.97 12.47 39.89 13.48L39.89 13.48L39.89 13.48Q39.89 13.83 39.70 13.83L39.70 13.83L39.70 13.83Q39.62 13.83 39.42 13.68L39.42 13.68L39.42 13.68Q38.67 13.03 38.67 11.91L38.67 11.91L38.67 11.91Q38.67 11.44 38.76 10.60L38.76 10.60L38.76 10.60Q38.85 9.76 38.86 9.44L38.86 9.44L38.86 9.44Q39.02 7.49 39.24 7.49L39.24 7.49L39.24 7.49Q39.37 7.49 39.42 7.76L39.42 7.76L39.42 7.76Q39.48 8.04 39.48 8.38L39.48 8.38L39.48 8.38Q39.48 8.72 39.50 9.00L39.50 9.00L39.50 9.00Q39.52 9.28 39.61 9.28L39.61 9.28L39.61 9.28Q39.69 9.28 39.84 8.83L39.84 8.83L39.84 8.83Q40.00 8.39 40.30 7.93L40.30 7.93L40.30 7.93Q40.60 7.48 40.95 7.48L40.95 7.48L40.95 7.48Q41.30 7.48 41.57 7.63L41.57 7.63L41.57 7.63Q42.17 7.94 42.17 8.92L42.17 8.92L42.17 8.92Q42.17 9.25 42.08 9.74L42.08 9.74L42.08 9.74Q42.00 10.23 41.94 10.81L41.94 10.81L41.94 10.81Q41.87 11.40 41.87 11.47L41.87 11.47L41.87 11.47Q41.87 11.55 41.93 11.55L41.93 11.55L41.93 11.55Q42.04 11.55 42.50 10.99L42.50 10.99L42.50 10.99Q42.95 10.43 43.12 10.43L43.12 10.43L43.12 10.43Q43.25 10.43 43.25 10.63ZM44.53 3.86L44.53 3.86L44.46 3.44L44.46 3.44Q44.46 3.28 44.65 3.28L44.65 3.28L44.65 3.28Q44.72 3.28 44.83 3.30L44.83 3.30L44.83 3.30Q45.67 3.47 45.67 4.27L45.67 4.27L45.67 4.27Q45.67 4.47 45.63 4.70L45.63 4.70L45.63 4.70Q45.58 4.93 45.46 5.66L45.46 5.66L45.46 5.66Q45.35 6.38 45.29 6.71L45.29 6.71L45.15 7.67L45.15 7.67Q44.81 9.88 44.81 11.75L44.81 11.75L44.81 11.75Q44.81 12.15 45.01 12.15L45.01 12.15L45.01 12.15Q45.08 12.15 45.16 12.07L45.16 12.07L45.16 12.07Q46.14 10.84 46.30 10.56L46.30 10.56L46.30 10.56Q46.47 10.29 46.54 10.29L46.54 10.29L46.54 10.29Q46.62 10.29 46.62 10.48L46.62 10.48L46.62 10.48Q46.62 10.67 46.54 11.19L46.54 11.19L46.54 11.19Q46.47 11.72 46.45 11.87L46.45 11.87L46.45 11.87Q46.44 12.01 46.39 12.19L46.39 12.19L46.39 12.19Q46.34 12.38 46.30 12.48L46.30 12.48L46.30 12.48Q46.27 12.59 46.16 12.78L46.16 12.78L46.16 12.78Q46.05 12.96 46.00 13.02L46.00 13.02L46.00 13.02Q45.71 13.41 45.53 13.63L45.53 13.63L45.53 13.63Q45.36 13.85 45.13 13.85L45.13 13.85L45.13 13.85Q44.90 13.85 44.69 13.64L44.69 13.64L44.69 13.64Q44.48 13.43 44.39 13.26L44.39 13.26L44.39 13.26Q44.30 13.09 44.13 12.74L44.13 12.74L44.13 12.74Q43.64 11.79 43.64 10.74L43.64 10.74L43.64 10.74Q43.64 9.84 43.84 8.54L43.84 8.54L43.84 8.54Q44.04 7.24 44.09 6.92L44.09 6.92L44.09 6.92Q43.76 6.92 43.76 6.64L43.76 6.64L43.76 6.64Q43.76 6.52 43.80 6.42L43.80 6.42L43.80 6.42Q43.83 6.31 44.06 5.64L44.06 5.64L44.06 5.64Q44.53 4.28 44.53 3.86ZM49.94 11.89L49.94 11.89L49.94 11.89Q48.79 13.94 48.19 13.94L48.19 13.94L48.19 13.94Q47.75 13.94 47.40 13.41L47.40 13.41L47.40 13.41Q47.31 13.27 47.19 12.97L47.19 12.97L47.19 12.97Q47.08 12.67 46.92 12.42L46.92 12.42L46.92 12.42Q46.76 12.17 46.76 11.74L46.76 11.74L46.76 11.74Q46.76 11.31 46.93 10.98L46.93 10.98L46.93 10.98Q48.08 8.71 49.35 7.87L49.35 7.87L49.35 7.87Q49.52 7.74 49.74 7.74L49.74 7.74L49.74 7.74Q49.97 7.74 50.30 7.99L50.30 7.99L50.30 7.99Q50.50 8.19 50.54 8.33L50.54 8.33L50.54 8.33Q50.61 8.64 50.61 8.71L50.61 8.71L50.61 8.71Q51.10 8.88 51.10 9.32L51.10 9.32L51.10 9.32Q51.10 9.63 50.93 10.72L50.93 10.72L50.93 10.72Q50.76 11.80 50.74 12.33L50.74 12.33L50.74 12.33Q50.74 12.63 50.93 12.63L50.93 12.63L50.93 12.63Q51.16 12.63 51.74 11.84L51.74 11.84L51.74 11.84Q52.32 11.06 52.40 11.06L52.40 11.06L52.40 11.06Q52.54 11.06 52.54 11.52L52.54 11.52L52.51 12.21L52.51 12.21Q52.51 12.60 52.16 13.28L52.16 13.28L52.16 13.28Q51.81 13.96 51.27 13.96L51.27 13.96L51.27 13.96Q50.93 13.96 50.74 13.73L50.74 13.73L50.74 13.73Q50.67 13.66 50.53 13.45L50.53 13.45L50.53 13.45Q50.09 12.82 49.94 11.89ZM50.06 8.65L50.06 8.65L50.06 8.65Q48.30 10.26 47.82 12.33L47.82 12.33L47.82 12.33Q49.24 11.12 50.06 8.65ZM57.23 11.77L57.23 11.77L57.23 11.77Q57.23 12.88 56.83 13.47L56.83 13.47L56.83 13.47Q56.52 13.86 56.29 13.86L56.29 13.86L56.29 13.86Q56.07 13.86 55.85 13.64L55.85 13.64L55.85 13.64Q55.06 12.73 55.06 11.45L55.06 11.45L55.06 11.45Q55.06 11.03 55.16 10.58L55.16 10.58L55.16 10.58Q55.33 9.81 55.33 9.59L55.33 9.59L55.33 9.59Q55.33 9.37 55.30 9.37L55.30 9.37L55.30 9.37Q55.22 9.37 54.19 13.22L54.19 13.22L54.19 13.22Q54.07 13.61 53.93 13.61L53.93 13.61L53.93 13.61Q53.55 13.61 53.03 12.31L53.03 12.31L53.03 12.31Q52.75 11.69 52.75 10.82L52.75 10.82L52.75 10.82Q52.75 9.84 52.87 9.17L52.87 9.17L52.87 9.17Q52.99 8.50 53.02 8.34L53.02 8.34L53.02 8.34Q53.05 8.18 53.12 7.82L53.12 7.82L53.12 7.82Q53.20 7.46 53.23 7.35L53.23 7.35L53.23 7.35Q53.40 6.65 53.45 6.36L53.45 6.36L53.45 6.36Q53.10 6.36 53.10 6.15L53.10 6.15L53.10 6.15Q53.10 6.05 53.19 5.94L53.19 5.94L53.19 5.94Q53.96 4.72 54.28 3.78L54.28 3.78L54.28 3.78Q54.33 3.54 54.50 3.54L54.50 3.54L54.50 3.54Q54.73 3.54 54.84 3.98L54.84 3.98L54.84 3.98Q54.95 4.41 54.95 4.73L54.95 4.73L54.95 4.73Q54.95 5.54 54.42 6.03L54.42 6.03L54.42 6.03Q53.79 9.94 53.79 10.14L53.79 10.14L53.79 10.14Q53.79 10.33 53.84 10.33L53.84 10.33L53.84 10.33Q53.90 10.33 54.05 10.07L54.05 10.07L54.05 10.07Q54.19 9.81 54.52 9.08L54.52 9.08L54.52 9.08Q54.84 8.34 55.05 7.99L55.05 7.99L55.05 7.99Q55.36 7.48 55.83 7.48L55.83 7.48L55.83 7.48Q56.59 7.48 56.59 8.89L56.59 8.89L56.59 8.89Q56.59 10.04 56.06 11.79L56.06 11.79L56.06 11.79Q56.04 11.84 56.04 11.90L56.04 11.90L56.04 11.90Q56.04 12.05 56.19 12.05L56.19 12.05L56.19 12.05Q56.34 12.05 56.71 11.65L56.71 11.65L56.71 11.65Q57.08 11.24 57.15 11.24L57.15 11.24L57.15 11.24Q57.23 11.24 57.23 11.77Z"></path></g><defs data-v-423bf9ae=""><linearGradient data-v-423bf9ae="" gradientTransform="rotate(25)" id="c030199d-a3c7-47bc-a076-917694e3fac0" x1="0%" y1="0%" x2="100%" y2="0%"><stop data-v-423bf9ae="" offset="0%" style="stop-color: rgb(233, 142, 13); stop-opacity: 1;"></stop><stop data-v-423bf9ae="" offset="100%" style="stop-color: rgb(21, 54, 241); stop-opacity: 1;"></stop></linearGradient></defs><g data-v-423bf9ae="" id="70d53a00-df7c-4454-b4e4-06bf4c9f38ef" transform="matrix(1.2211656792286887,0,0,1.2211656792286887,1157.8669321210903,-1177.225825944826)" stroke="none" fill="url(#c030199d-a3c7-47bc-a076-917694e3fac0)"><switch><g><path d="M-855.3 964.1h-87.3c-2.9 0-5.3 2.4-5.3 5.3v63.1c0 2.9 2.4 5.3 5.3 5.3h87.3c2.9 0 5.3-2.4 5.3-5.3v-63.1c0-2.9-2.4-5.3-5.3-5.3zm2.5 68.5c0 1.4-1.1 2.5-2.5 2.5h-87.3c-1.4 0-2.5-1.1-2.5-2.5v-54.7h92.4v54.7zm0-57.5h-92.4v-5.7c0-1.4 1.1-2.5 2.5-2.5h87.3c1.4 0 2.5 1.1 2.5 2.5v5.7z"></path><path d="M-881.4 969.6h-35.3c-.8 0-1.4.6-1.4 1.4s.6 1.4 1.4 1.4h35.3c.8 0 1.4-.6 1.4-1.4s-.6-1.4-1.4-1.4z"></path><circle cx="-941.2" cy="971" r="1.4"></circle><circle cx="-936.6" cy="971" r="1.4"></circle><circle cx="-931.9" cy="971" r="1.4"></circle><path d="M-910.9 1012.3l-7.3-5.1 7.3-5.1-2.5-3.5-12.3 8.6 12.3 8.6zM-890.6 991h-4.9l-11.9 31h4.8zM-884.6 1015.8l12.3-8.6-12.3-8.6-2.5 3.5 7.3 5.1-7.3 5.1z"></path></g></switch></g><!----><g data-v-423bf9ae="" id="932b6c0e-c228-48f8-a9c0-2d0cb3f27499" fill="#2F2849" transform="matrix(1.1520142362346353,0,0,1.1520142362346353,139.13735726205434,53.44503826810315)"><path d="M4.40 6.98L3.04 10.75L5.72 10.75L4.40 6.98ZM3.08 14.40L0.36 14.40L0.39 14.11L1.36 13.90L4.35 5.82L4.72 5.73L7.55 13.95L8.46 14.08L8.40 14.39L5.61 14.39L5.67 14.10L6.80 13.90L5.85 11.13L2.90 11.13L1.89 13.95L3.14 14.08L3.08 14.40ZM26.87 6.34L26.03 6.15L26.08 5.89L28.77 5.89L28.75 6.11L27.62 6.32L29.57 13.18L31.62 6.18L31.93 6.14L33.87 13.18L36.08 6.36L34.80 6.13L34.84 5.89L37.45 5.89L37.43 6.14L36.63 6.34L33.93 14.49L33.49 14.57L31.66 7.63L29.64 14.49L29.16 14.57L26.87 6.34ZM46.38 6.36L45.15 6.18L45.20 5.89L51.39 5.89L51.18 8.07L50.87 8.03L50.74 6.24L47.09 6.24L47.09 9.89L49.38 9.89L49.63 8.94L50.00 8.89L49.77 11.55L49.42 11.61L49.31 10.26L47.09 10.26L47.09 14.03L50.93 14.03L51.43 12.19L51.71 12.26L51.51 14.40L45.17 14.40L45.21 14.11L46.38 13.90L46.38 6.36ZM61.32 6.15L61.32 9.75L63.44 9.75L63.44 9.75Q63.90 9.45 64.23 9.01L64.23 9.01L64.23 9.01Q64.57 8.57 64.57 8.02L64.57 8.02L64.57 8.02Q64.57 7.08 63.93 6.59L63.93 6.59L63.93 6.59Q63.29 6.11 62.15 6.11L62.15 6.11L62.15 6.11Q61.50 6.11 61.32 6.15L61.32 6.15ZM61.32 10.08L61.32 14.03L63 14.03L63 14.03Q63.64 14.03 64.09 13.85L64.09 13.85L64.09 13.85Q64.55 13.68 64.79 13.38L64.79 13.38L64.79 13.38Q65.04 13.08 65.15 12.74L65.15 12.74L65.15 12.74Q65.26 12.41 65.26 12.02L65.26 12.02L65.26 12.02Q65.26 11.68 65.15 11.36L65.15 11.36L65.15 11.36Q65.04 11.04 64.80 10.74L64.80 10.74L64.80 10.74Q64.56 10.45 64.11 10.26L64.11 10.26L64.11 10.26Q63.67 10.08 63.07 10.08L63.07 10.08L61.32 10.08ZM62.32 14.40L59.42 14.40L59.47 14.11L60.63 13.90L60.63 6.51L59.45 6.36L59.52 6.12L59.52 6.12Q59.64 6.10 60.08 6.03L60.08 6.03L60.08 6.03Q60.52 5.96 60.69 5.94L60.69 5.94L60.69 5.94Q60.87 5.91 61.22 5.87L61.22 5.87L61.22 5.87Q61.58 5.83 61.89 5.82L61.89 5.82L61.89 5.82Q62.20 5.80 62.55 5.80L62.55 5.80L62.55 5.80Q63.83 5.80 64.55 6.38L64.55 6.38L64.55 6.38Q65.26 6.96 65.26 7.79L65.26 7.79L65.26 7.79Q65.26 8.98 63.85 9.76L63.85 9.76L63.85 9.80L63.85 9.80Q64.84 9.86 65.41 10.46L65.41 10.46L65.41 10.46Q65.98 11.05 65.98 11.80L65.98 11.80L65.98 11.80Q65.98 12.22 65.88 12.58L65.88 12.58L65.88 12.58Q65.78 12.95 65.51 13.29L65.51 13.29L65.51 13.29Q65.25 13.63 64.85 13.87L64.85 13.87L64.85 13.87Q64.44 14.11 63.80 14.25L63.80 14.25L63.80 14.25Q63.15 14.40 62.32 14.40L62.32 14.40ZM85.50 6.19L85.50 14.03L86.73 14.03L86.73 14.03Q88.53 14.03 89.63 12.95L89.63 12.95L89.63 12.95Q90.73 11.87 90.73 10.12L90.73 10.12L90.73 10.12Q90.73 8.20 89.67 7.18L89.67 7.18L89.67 7.18Q88.62 6.16 86.69 6.16L86.69 6.16L86.69 6.16Q85.69 6.16 85.50 6.19L85.50 6.19ZM86.54 14.40L83.60 14.40L83.65 14.11L84.81 13.90L84.81 6.51L83.63 6.36L83.70 6.12L83.70 6.12Q85.78 5.79 86.94 5.79L86.94 5.79L86.94 5.79Q87.90 5.79 88.68 6.03L88.68 6.03L88.68 6.03Q89.46 6.26 89.97 6.66L89.97 6.66L89.97 6.66Q90.48 7.05 90.82 7.59L90.82 7.59L90.82 7.59Q91.16 8.13 91.31 8.71L91.31 8.71L91.31 8.71Q91.46 9.29 91.46 9.92L91.46 9.92L91.46 9.92Q91.46 10.64 91.29 11.28L91.29 11.28L91.29 11.28Q91.12 11.93 90.74 12.50L90.74 12.50L90.74 12.50Q90.36 13.08 89.79 13.49L89.79 13.49L89.79 13.49Q89.23 13.91 88.40 14.15L88.40 14.15L88.40 14.15Q87.57 14.40 86.54 14.40L86.54 14.40ZM100.41 6.36L99.18 6.18L99.23 5.89L105.42 5.89L105.21 8.07L104.90 8.03L104.77 6.24L101.12 6.24L101.12 9.89L103.41 9.89L103.66 8.94L104.03 8.89L103.80 11.55L103.46 11.61L103.35 10.26L101.12 10.26L101.12 14.03L104.96 14.03L105.46 12.19L105.75 12.26L105.54 14.40L99.20 14.40L99.24 14.11L100.41 13.90L100.41 6.36ZM114.44 6.34L113.44 6.14L113.46 5.89L116.36 5.89L116.33 6.14L115.19 6.32L117.55 13.30L120.13 6.34L118.86 6.14L118.88 5.89L121.54 5.89L121.52 6.14L120.63 6.32L117.62 14.47L117.27 14.57L114.44 6.34ZM130.46 6.36L129.24 6.18L129.29 5.89L135.48 5.89L135.27 8.07L134.96 8.03L134.83 6.24L131.17 6.24L131.17 9.89L133.46 9.89L133.72 8.94L134.09 8.89L133.86 11.55L133.51 11.61L133.40 10.26L131.17 10.26L131.17 14.03L135.02 14.03L135.52 12.19L135.80 12.26L135.60 14.40L129.26 14.40L129.30 14.11L130.46 13.90L130.46 6.36ZM149.68 14.40L143.53 14.40L143.56 14.11L144.72 13.90L144.72 6.34L143.54 6.17L143.57 5.90L146.68 5.90L146.65 6.17L145.45 6.32L145.45 14.03L149.07 14.03L149.60 12.09L149.90 12.14L149.68 14.40ZM158.40 9.75L158.40 9.75L158.40 9.75Q158.40 11.03 158.76 12.01L158.76 12.01L158.76 12.01Q159.12 13.00 159.84 13.57L159.84 13.57L159.84 13.57Q160.56 14.14 161.53 14.14L161.53 14.14L161.53 14.14Q162.11 14.14 162.60 13.92L162.60 13.92L162.60 13.92Q163.09 13.70 163.44 13.33L163.44 13.33L163.44 13.33Q163.78 12.96 164.02 12.49L164.02 12.49L164.02 12.49Q164.27 12.01 164.38 11.50L164.38 11.50L164.38 11.50Q164.50 10.99 164.50 10.48L164.50 10.48L164.50 10.48Q164.50 8.50 163.65 7.29L163.65 7.29L163.65 7.29Q162.80 6.07 161.35 6.07L161.35 6.07L161.35 6.07Q160.77 6.07 160.28 6.28L160.28 6.28L160.28 6.28Q159.78 6.49 159.44 6.85L159.44 6.85L159.44 6.85Q159.10 7.21 158.86 7.69L158.86 7.69L158.86 7.69Q158.62 8.16 158.51 8.69L158.51 8.69L158.51 8.69Q158.40 9.21 158.40 9.75ZM157.64 10.16L157.64 10.16L157.64 10.16Q157.64 8.16 158.74 6.92L158.74 6.92L158.74 6.92Q159.84 5.69 161.68 5.69L161.68 5.69L161.68 5.69Q162.81 5.69 163.63 6.27L163.63 6.27L163.63 6.27Q164.45 6.86 164.84 7.84L164.84 7.84L164.84 7.84Q165.24 8.83 165.24 10.11L165.24 10.11L165.24 10.11Q165.24 10.75 165.09 11.38L165.09 11.38L165.09 11.38Q164.94 12.00 164.61 12.58L164.61 12.58L164.61 12.58Q164.29 13.17 163.83 13.61L163.83 13.61L163.83 13.61Q163.37 14.05 162.69 14.32L162.69 14.32L162.69 14.32Q162.01 14.58 161.21 14.58L161.21 14.58L161.21 14.58Q160.15 14.58 159.33 13.98L159.33 13.98L159.33 13.98Q158.50 13.37 158.07 12.37L158.07 12.37L158.07 12.37Q157.64 11.37 157.64 10.16ZM176.37 14.40L172.96 14.40L173.00 14.11L174.08 13.90L174.08 6.51L172.97 6.36L173.03 6.12L173.03 6.12Q173.20 6.09 173.65 6.02L173.65 6.02L173.65 6.02Q174.10 5.94 174.33 5.91L174.33 5.91L174.33 5.91Q174.56 5.88 174.97 5.84L174.97 5.84L174.97 5.84Q175.38 5.81 175.79 5.81L175.79 5.81L175.79 5.81Q176.48 5.81 177.07 5.96L177.07 5.96L177.07 5.96Q177.66 6.10 178.12 6.40L178.12 6.40L178.12 6.40Q178.58 6.69 178.84 7.18L178.84 7.18L178.84 7.18Q179.10 7.66 179.10 8.29L179.10 8.29L179.10 8.29Q179.10 8.90 178.82 9.43L178.82 9.43L178.82 9.43Q178.54 9.97 178.08 10.33L178.08 10.33L178.08 10.33Q177.62 10.69 177.02 10.90L177.02 10.90L177.02 10.90Q176.42 11.10 175.78 11.10L175.78 11.10L175.78 11.10Q175.51 11.10 175.44 11.09L175.44 11.09L175.37 10.80L175.74 10.78L175.74 10.78Q176.40 10.75 176.90 10.55L176.90 10.55L176.90 10.55Q177.39 10.36 177.68 10.03L177.68 10.03L177.68 10.03Q177.97 9.70 178.11 9.30L178.11 9.30L178.11 9.30Q178.25 8.90 178.25 8.43L178.25 8.43L178.25 8.43Q178.25 7.98 178.09 7.57L178.09 7.57L178.09 7.57Q177.92 7.16 177.60 6.83L177.60 6.83L177.60 6.83Q177.28 6.50 176.75 6.31L176.75 6.31L176.75 6.31Q176.23 6.11 175.58 6.11L175.58 6.11L174.83 6.15L174.83 13.95L176.43 14.08L176.37 14.40ZM188.02 6.36L186.79 6.18L186.84 5.89L193.03 5.89L192.82 8.07L192.51 8.03L192.38 6.24L188.73 6.24L188.73 9.89L191.02 9.89L191.27 8.94L191.64 8.89L191.41 11.55L191.06 11.61L190.96 10.26L188.73 10.26L188.73 14.03L192.57 14.03L193.07 12.19L193.35 12.26L193.15 14.40L186.81 14.40L186.85 14.11L188.02 13.90L188.02 6.36ZM202.88 6.18L202.88 10.11L204.44 10.11L204.44 10.11Q205.12 9.86 205.58 9.28L205.58 9.28L205.58 9.28Q206.04 8.70 206.04 8.02L206.04 8.02L206.04 8.02Q206.04 7.11 205.42 6.63L205.42 6.63L205.42 6.63Q204.80 6.15 203.71 6.15L203.71 6.15L202.88 6.18ZM204.26 14.40L201.07 14.40L201.11 14.11L202.18 13.90L202.18 6.51L201.09 6.37L201.15 6.13L201.15 6.13Q202.97 5.83 204.05 5.83L204.05 5.83L204.05 5.83Q204.82 5.83 205.43 6.05L205.43 6.05L205.43 6.05Q206.04 6.27 206.41 6.73L206.41 6.73L206.41 6.73Q206.79 7.19 206.79 7.83L206.79 7.83L206.79 7.83Q206.79 8.57 206.36 9.14L206.36 9.14L206.36 9.14Q205.93 9.72 204.90 10.23L204.90 10.23L204.90 10.23L206.22 12.19L206.22 12.19Q206.93 13.23 207.28 13.58L207.28 13.58L207.28 13.58Q207.62 13.92 208.00 14.05L208.00 14.05L208.33 14.16L208.29 14.42L208.29 14.42Q208.00 14.52 207.66 14.52L207.66 14.52L207.66 14.52Q207.37 14.52 207.12 14.40L207.12 14.40L207.12 14.40Q206.86 14.28 206.62 14.01L206.62 14.01L206.62 14.01Q206.38 13.75 206.19 13.48L206.19 13.48L206.19 13.48Q206.01 13.22 205.73 12.77L205.73 12.77L204.35 10.49L202.88 10.49L202.88 13.95L204.33 14.08L204.26 14.40Z"></path></g></svg>